<svg width="1301" height="1145" viewBox="0 0 1301 1145" fill="none" xmlns="http://www.w3.org/2000/svg">
<g opacity="0.4" filter="url(#filter0_f_8_109)">
<path opacity="0.5" d="M596.997 659.426C609.848 675.604 601.946 697.524 617.712 712.948C622.271 716.78 626.994 727.839 609.422 741.419C604.908 763.3 539.829 794.866 545.699 817.979C550.02 834.995 556.605 855.018 582.21 867.722C601.953 877.516 627.139 881.429 650.103 883.585C683.372 886.7 716.861 886.293 747.441 881.894C847.117 867.562 916.955 819.803 966.293 770.617C1026.41 710.689 1050.77 639.144 1050.41 564.155C1050.26 533.228 1045.38 502.162 1031.02 470.776C1017.8 441.884 999.539 413.066 977.545 385.231C949.554 349.79 913.075 315.164 864.215 287.124C827.058 265.792 782.051 255.052 735.14 251.092C671.018 245.665 616.471 260.78 583.455 289.435C563.088 307.113 551.937 334.85 581.261 357.094C603.636 374.06 638.458 383.421 667.905 394.346C687.577 401.652 715.235 412.202 714.632 426.911C713.614 451.788 696.782 475.525 680.74 496.448C660.247 523.177 626.682 543.564 599.701 567.381C584.161 581.097 580.892 598.806 580.929 616.417C580.964 630.573 585.984 645.553 596.997 659.426Z" fill="#00F0FF" fill-opacity="0.6"/>
<path opacity="0.5" d="M703.414 668.397C690.564 684.575 698.465 706.495 682.699 721.919C678.14 725.751 673.417 736.811 690.988 750.391C695.502 772.271 760.582 803.837 754.712 826.951C750.391 843.966 743.806 863.989 718.201 876.694C698.458 886.486 673.273 890.401 650.308 892.553C617.039 895.671 583.551 895.264 552.97 890.867C453.295 876.533 383.456 828.774 334.118 779.588C273.999 719.66 249.645 648.115 250.004 573.126C250.15 542.199 255.037 511.133 269.393 479.747C282.616 450.856 300.873 422.038 322.866 394.203C350.857 358.761 387.336 324.136 436.197 296.096C473.353 274.763 518.359 264.024 565.27 260.063C629.393 254.637 683.94 269.751 716.956 298.406C737.323 316.084 748.475 343.821 719.149 366.065C696.775 383.031 661.952 392.393 632.507 403.317C612.834 410.623 585.177 421.173 585.78 435.882C586.798 460.76 603.629 484.496 619.671 505.419C640.164 532.148 673.728 552.535 700.71 576.352C716.25 590.068 719.519 607.777 719.482 625.388C719.448 639.544 714.427 654.524 703.414 668.397Z" fill="#FF1CF7" fill-opacity="0.8"/>
</g>
<defs>
<filter id="filter0_f_8_109" x="0" y="0" width="1300.41" height="1144.58" filterUnits="userSpaceOnUse" color-interpolation-filters="sRGB">
<feFlood flood-opacity="0" result="BackgroundImageFix"/>
<feBlend mode="normal" in="SourceGraphic" in2="BackgroundImageFix" result="shape"/>
<feGaussianBlur stdDeviation="125" result="effect1_foregroundBlur_8_109"/>
</filter>
</defs>
</svg>
